# xmcd
#
# Track frame offsets:
#	150
#	17959
#	36753
#	55919
#	78192
#	81109
#	97486
#	116448
#	133472
#	149505
#	166562
#	183982
#	193782
#	210775
#
# Disc length: 3377 seconds
#
# Revision: 0
# Processed by: cddbd v1.5.1PL2 Copyright (c) Steve Scherf et al.
# Submitted via: dBpowerAMP V4.0
#
DISCID=bf0d2f0e
DTITLE=MG Uys - Uit die Blou
DYEAR=2004
DGENRE=Afrikaans
TTITLE0=Stil, Stil my Hart
TTITLE1=Vakansieliefde
TTITLE2=Tolla v.d. Merwe
TTITLE3=Saartjie Marais
TTITLE4=Inleiding: Uit die Blou
TTITLE5=Uit die Blou
TTITLE6=Verlange
TTITLE7=Reënboog
TTITLE8=Morestond
TTITLE9=Remona
TTITLE10=Die Lewe en die Lotto
TTITLE11=Piet Muskiet
TTITLE12=Spieëltjie, Spieëltjie
TTITLE13=Vakansieliefde (remix)
EXTD=
EXTT0=
EXTT1=
EXTT2=
EXTT3=
EXTT4=
EXTT5=
EXTT6=
EXTT7=
EXTT8=
EXTT9=
EXTT10=
EXTT11=
EXTT12=
EXTT13=
PLAYORDER=
